<svg width="27.000000" height="27.000000" viewBox="0 0 27 27" fill="none" xmlns="http://www.w3.org/2000/svg" xmlns:xlink="http://www.w3.org/1999/xlink">
	<desc>
			Created with Pixso.
	</desc>
	<defs/>
	<path id="Vector" d="M13 -0.34C5.63 -0.34 -0.34 5.63 -0.34 12.99C-0.34 20.35 5.63 26.33 13 26.33C20.36 26.33 26.33 20.35 26.33 12.99C26.33 5.63 20.36 -0.34 13 -0.34ZM19.18 8.73C18.98 10.83 18.12 15.96 17.68 18.31C17.49 19.31 17.12 19.65 16.77 19.69C16 19.75 15.41 19.18 14.66 18.69C13.49 17.91 12.82 17.43 11.69 16.69C10.37 15.82 11.22 15.34 11.98 14.57C12.18 14.37 15.6 11.26 15.66 10.98C15.67 10.94 15.67 10.9 15.66 10.85C15.65 10.81 15.62 10.77 15.6 10.74C15.52 10.67 15.41 10.7 15.32 10.71C15.2 10.74 13.33 11.98 9.69 14.43C9.16 14.79 8.67 14.98 8.25 14.97C7.77 14.96 6.86 14.7 6.18 14.47C5.34 14.21 4.69 14.06 4.74 13.59C4.77 13.35 5.1 13.11 5.73 12.86C9.62 11.17 12.21 10.05 13.5 9.51C17.21 7.97 17.97 7.7 18.48 7.7C18.58 7.7 18.84 7.73 19 7.86C19.13 7.97 19.17 8.11 19.18 8.22C19.17 8.3 19.2 8.54 19.18 8.73Z" fill="#FFFFFF" fill-opacity="1.000000" fill-rule="nonzero"/>
</svg>
