<svg width="137.000000" height="72.000000" viewBox="0 0 137 72" fill="none" xmlns="http://www.w3.org/2000/svg" xmlns:xlink="http://www.w3.org/1999/xlink">
	<desc>
			Created with Pixso.
	</desc>
	<defs>
		<clipPath id="clip1_165">
			<rect id="Group 19 2" width="137.000000" height="72.000000" fill="white" fill-opacity="0"/>
		</clipPath>
	</defs>
	<rect id="Group 19 2" width="137.000000" height="72.000000" fill="#FFFFFF" fill-opacity="0"/>
	<g clip-path="url(#clip1_165)">
		<path id="Vector" d="M5.96069 61.5083L9.10132 61.5083C9.59351 61.5083 9.84351 61.4692 10.0701 61.3755C10.6013 61.1567 11.0076 60.688 11.0076 60.0317C11.0076 59.3833 10.6169 58.9067 10.0701 58.6802C9.84351 58.5864 9.60132 58.5396 9.09351 58.5396L5.96069 58.5396L5.96069 61.5083ZM5.96069 68.0005L4.09351 68.0005L4.09351 56.7974L9.32788 56.7974C10.1951 56.7974 10.7654 56.9458 11.2498 57.2271C12.2186 57.7505 12.8513 58.7583 12.8513 60.0239C12.8513 61.2583 12.2186 62.2817 11.2419 62.813C10.7576 63.0864 10.1951 63.2427 9.32788 63.2427L5.96069 63.2427L5.96069 68.0005ZM19.8685 56.7974L21.9545 56.7974L25.0013 62.5396L27.9545 56.7974L30.0403 56.7974L25.7357 64.8989C25.2045 65.8989 24.8607 66.4927 24.3607 67.0161C23.7826 67.6099 23.0795 68.0239 22.142 68.0239C21.4778 68.0239 20.8295 67.813 20.267 67.4224L21.2201 65.8364C21.5013 66.0396 21.8295 66.1489 22.1653 66.1489C22.8217 66.1489 23.2201 65.7583 23.7278 64.8442C23.7357 64.813 23.9857 64.3677 23.9857 64.3677L19.8685 56.7974ZM37.6279 56.7974L38.6357 56.7974L43.4872 62.6333L48.331 56.7974L49.3466 56.7974L49.3466 68.0005L47.4716 68.0005L47.4716 60.3521L43.4872 65.2192L39.4951 60.3521L39.4951 68.0005L37.6279 68.0005L37.6279 56.7974ZM57.3248 56.7896L66.7935 56.7896L66.7935 58.5396L62.9889 58.5396L62.9889 68.0005L61.1139 68.0005L61.1139 58.5396L57.3248 58.5396L57.3248 56.7896ZM82.5607 68.0005L82.5607 60.1802L75.7794 68.0005L74.7639 68.0005L74.7639 56.7974L76.6389 56.7974L76.6389 64.6099C78.8967 62.0083 81.1544 59.3989 83.4201 56.7974L84.4357 56.7974L84.4357 68.0005L82.5607 68.0005ZM101.773 64.6724C101.773 65.9849 101.117 67.0239 100.117 67.5708C99.6248 67.8442 99.0388 68.0005 98.1638 68.0005L93.0309 68.0005L93.0309 56.7974L100.758 56.7974L100.758 58.5396L94.8982 58.5396L94.8982 61.3521L98.1638 61.3521C99.0388 61.3521 99.6248 61.5083 100.109 61.7896C101.117 62.3286 101.773 63.3989 101.773 64.6724ZM99.9217 64.6724C99.9217 63.9692 99.4998 63.4614 98.9373 63.2192C98.7029 63.1255 98.4451 63.0786 97.9451 63.0786L94.8982 63.0786L94.8982 66.2661L97.9373 66.2661C98.4529 66.2661 98.7107 66.2192 98.9373 66.1177C99.5076 65.8833 99.9217 65.3677 99.9217 64.6724ZM109.853 56.7974L117.502 56.7974L117.502 58.5317L111.728 58.5317L111.728 60.9927L116.205 60.9927L116.205 62.7114L111.728 62.7114L111.728 66.2661L117.502 66.2661L117.502 68.0005L109.853 68.0005L109.853 56.7974ZM125.097 56.7896L134.566 56.7896L134.566 58.5396L130.761 58.5396L130.761 68.0005L128.886 68.0005L128.886 58.5396L125.097 58.5396L125.097 56.7896Z" fill="#FFFFFF" fill-opacity="1.000000" fill-rule="nonzero"/>
		<mask id="mask1_168" mask-type="alpha" maskUnits="userSpaceOnUse" x="0.999756" y="0.000000" width="137.000000" height="48.000000">
			<path id="Vector" d="M0.999756 0L138 0L138 48L0.999756 48L0.999756 0Z" fill="#000000" fill-opacity="1.000000" fill-rule="evenodd"/>
		</mask>
		<g mask="url(#mask1_168)">
			<path id="Vector" d="M1.15326 27.9143C1.39764 27.8562 25.8149 22.0349 44.1996 13.8809C46.2447 12.9739 47.9006 12.436 49.2953 12.1826C47.7327 13.7573 38.5398 17.6826 45.8817 18.3782C52.6183 19.0171 41.5211 27.0107 36.4341 29.917C23.0529 34.1597 14.3685 35.8259 14.2123 35.8555L14.3965 36.8372C14.442 36.8284 15.2198 36.6792 16.6273 36.3679C24.0037 34.7354 48.7646 28.6221 77.1718 14.6516C81.1555 12.6924 84.407 11.606 87.1434 11.2029C86.3412 15.3186 77.053 24.4199 91.8865 26.7183C105.416 28.8142 78.2844 34.136 68.1727 36.8457C66.7143 37.2366 65.6095 37.5732 65.0325 37.8376C60.5681 39.8855 112.467 38.0435 135.676 37.9502C136.433 37.9768 137.206 37.9922 138 37.9922L138 36.9934C117.27 36.9934 109.928 27.5137 104.028 19.8965C97.8972 11.981 93.0549 5.72778 76.7314 13.7554C72.9384 15.6194 69.1039 17.3982 65.231 19.0901C61.8083 17.8721 59.7356 16.1204 57.9196 14.5828C54.5383 11.7195 52.095 9.65039 43.9301 13.2725C25.6026 21.4006 1.2435 27.2085 0.999756 27.2661L1.15326 27.9143Z" fill="#FDFDFD" fill-opacity="1.000000" fill-rule="nonzero"/>
		</g>
	</g>
</svg>
