<svg width="27.000000" height="27.000000" viewBox="0 0 27 27" fill="none" xmlns="http://www.w3.org/2000/svg" xmlns:xlink="http://www.w3.org/1999/xlink">
	<desc>
			Created with Pixso.
	</desc>
	<defs/>
	<path id="Vector" d="M9.05 25.71C10.33 26.1 11.62 26.33 13 26.33C16.53 26.33 19.92 24.92 22.42 22.42C24.92 19.92 26.33 16.53 26.33 12.99C26.33 11.24 25.98 9.51 25.31 7.89C24.64 6.27 23.66 4.8 22.42 3.57C21.19 2.33 19.72 1.35 18.1 0.68C16.48 0.01 14.75 -0.34 13 -0.34C11.24 -0.34 9.51 0.01 7.89 0.68C6.27 1.35 4.81 2.33 3.57 3.57C1.07 6.07 -0.34 9.46 -0.34 12.99C-0.34 18.66 3.22 23.53 8.25 25.45C8.13 24.41 8.01 22.69 8.25 21.5L9.78 14.91C9.78 14.91 9.39 14.14 9.39 12.91C9.39 11.07 10.54 9.7 11.85 9.7C13 9.7 13.53 10.54 13.53 11.62C13.53 12.77 12.77 14.41 12.38 15.98C12.16 17.29 13.08 18.43 14.41 18.43C16.78 18.43 18.62 15.9 18.62 12.33C18.62 9.13 16.33 6.94 13.04 6.94C9.28 6.94 7.06 9.74 7.06 12.69C7.06 13.83 7.43 14.99 8.05 15.75C8.17 15.83 8.17 15.94 8.13 16.14L7.74 17.59C7.74 17.82 7.59 17.9 7.37 17.74C5.66 16.99 4.67 14.57 4.67 12.61C4.67 8.39 7.66 4.57 13.42 4.57C18.01 4.57 21.58 7.86 21.58 12.23C21.58 16.82 18.74 20.5 14.68 20.5C13.38 20.5 12.12 19.81 11.66 18.99L10.77 22.15C10.46 23.3 9.62 24.83 9.05 25.75L9.05 25.71Z" fill="#FFFFFF" fill-opacity="1.000000" fill-rule="nonzero"/>
</svg>
