<svg width="21.000000" height="18.000000" viewBox="0 0 21 18" fill="none" xmlns="http://www.w3.org/2000/svg" xmlns:xlink="http://www.w3.org/1999/xlink">
	<desc>
			Created with Pixso.
	</desc>
	<defs/>
	<path id="Vector" d="M-0.5 1.5C-0.5 1.1 -0.35 0.72 -0.07 0.43C0.22 0.15 0.6 0 1 0L19 0C19.39 0 19.77 0.15 20.06 0.43C20.34 0.72 20.5 1.1 20.5 1.5C20.5 1.89 20.34 2.27 20.06 2.56C19.77 2.84 19.39 3 19 3L1 3C0.6 3 0.22 2.84 -0.07 2.56C-0.35 2.27 -0.5 1.89 -0.5 1.5ZM-0.5 9C-0.5 8.6 -0.35 8.22 -0.07 7.93C0.22 7.65 0.6 7.5 1 7.5L19 7.5C19.39 7.5 19.77 7.65 20.06 7.93C20.34 8.22 20.5 8.6 20.5 9C20.5 9.39 20.34 9.77 20.06 10.06C19.77 10.34 19.39 10.5 19 10.5L1 10.5C0.6 10.5 0.22 10.34 -0.07 10.06C-0.35 9.77 -0.5 9.39 -0.5 9ZM8.5 16.5C8.5 16.1 8.65 15.72 8.93 15.43C9.22 15.15 9.6 15 10 15L19 15C19.39 15 19.77 15.15 20.06 15.43C20.34 15.72 20.5 16.1 20.5 16.5C20.5 16.89 20.34 17.27 20.06 17.56C19.77 17.84 19.39 18 19 18L10 18C9.6 18 9.22 17.84 8.93 17.56C8.65 17.27 8.5 16.89 8.5 16.5Z" fill="#FFFFFF" fill-opacity="1.000000" fill-rule="evenodd"/>
</svg>
