<svg width="14.507694" height="7.641357" viewBox="0 0 14.5077 7.64136" fill="none" xmlns="http://www.w3.org/2000/svg" xmlns:xlink="http://www.w3.org/1999/xlink">
	<desc>
			Created with Pixso.
	</desc>
	<defs/>
	<path id="Vector" d="M13.5007 0.171387L7.25321 6.26123L1.00571 0.171387C0.894085 0.0622559 0.744244 0.0012207 0.588207 0.0012207C0.432175 0.0012207 0.28233 0.0622559 0.170708 0.171387C0.116661 0.224365 0.0737228 0.287598 0.0444107 0.357178C0.0150986 0.427002 0 0.501953 0 0.577637C0 0.65332 0.0150986 0.728027 0.0444107 0.797852C0.0737228 0.867676 0.116661 0.930908 0.170708 0.983887L6.81696 7.46387C6.93367 7.57764 7.09022 7.64136 7.25321 7.64136C7.4162 7.64136 7.57274 7.57764 7.68946 7.46387L14.3357 0.985107C14.3901 0.932129 14.4334 0.868652 14.4629 0.798828C14.4925 0.72876 14.5077 0.653564 14.5077 0.577637C14.5077 0.501709 14.4925 0.426514 14.4629 0.356445C14.4334 0.286377 14.3901 0.223145 14.3357 0.170166C14.2241 0.0610352 14.0742 0 13.9182 0C13.7622 0 13.6123 0.0610352 13.5007 0.170166L13.5007 0.171387Z" fill="#FDFDFD" fill-opacity="1.000000" fill-rule="nonzero"/>
</svg>
